<svg width="32" height="32" viewBox="0 0 32 32" fill="none" xmlns="http://www.w3.org/2000/svg">
<rect width="32" height="32" fill="black"/>
<path d="M7.44891 23V9.28H14.9689C15.9822 9.28 16.8222 9.46 17.4889 9.82C18.1689 10.18 18.6756 10.6867 19.0089 11.34C19.3422 11.98 19.5089 12.72 19.5089 13.56C19.5089 14.4533 19.3089 15.2467 18.9089 15.94C18.5089 16.62 17.9289 17.14 17.1689 17.5L19.9689 23H16.6689L14.2489 18H10.4289V23H7.44891ZM10.4289 15.64H14.5689C15.1689 15.64 15.6356 15.46 15.9689 15.1C16.3022 14.7267 16.4689 14.2267 16.4689 13.6C16.4689 13.2 16.3956 12.86 16.2489 12.58C16.1022 12.2867 15.8889 12.0667 15.6089 11.92C15.3289 11.7733 14.9822 11.7 14.5689 11.7H10.4289V15.64ZM21.5583 23V20.14H24.4583V23H21.5583Z" fill="white"/>
</svg>
