<svg width="438" height="95" viewBox="0 0 438 95" fill="none" xmlns="http://www.w3.org/2000/svg">
<path d="M87 91.5V33.196H57.7841V4.5H0V32.4794H51.7271V35.0526C51.7271 35.0526 0 36.6812 0 91.5H28.309C28.309 91.5 32.0339 61.8594 58.0108 61.8594V91.5H87Z" fill="white"/>
<path d="M119.32 93V28.488H136.344L138.136 40.264C139.843 37.5333 141.848 35.1867 144.152 33.224C146.456 31.2613 149.101 29.7253 152.088 28.616C155.16 27.5067 158.445 26.952 161.944 26.952V47.304H155.544C152.984 47.304 150.637 47.6027 148.504 48.2C146.456 48.712 144.664 49.608 143.128 50.888C141.677 52.168 140.525 53.9173 139.672 56.136C138.904 58.2693 138.52 60.9573 138.52 64.2V93H119.32ZM200.474 94.536C193.818 94.536 187.973 93.1707 182.938 90.44C177.903 87.624 173.935 83.7413 171.034 78.792C168.218 73.7573 166.81 67.9973 166.81 61.512C166.81 54.856 168.218 48.9253 171.034 43.72C173.85 38.5147 177.775 34.4187 182.81 31.432C187.845 28.4453 193.69 26.952 200.346 26.952C206.831 26.952 212.506 28.36 217.37 31.176C222.234 33.992 226.031 37.832 228.762 42.696C231.578 47.4747 232.986 53.0213 232.986 59.336C232.986 60.1893 232.943 61.1707 232.858 62.28C232.858 63.304 232.773 64.3707 232.602 65.48H180.506V54.344H213.402C213.231 50.76 211.909 47.9013 209.434 45.768C207.045 43.5493 204.058 42.44 200.474 42.44C197.743 42.44 195.269 43.08 193.05 44.36C190.831 45.64 189.039 47.56 187.674 50.12C186.394 52.68 185.754 55.9227 185.754 59.848V63.688C185.754 66.6747 186.309 69.32 187.418 71.624C188.613 73.928 190.277 75.72 192.41 77C194.629 78.28 197.231 78.92 200.218 78.92C203.034 78.92 205.338 78.3653 207.13 77.256C209.007 76.0613 210.458 74.568 211.482 72.776H231.066C229.871 76.872 227.823 80.584 224.922 83.912C222.021 87.1547 218.479 89.7573 214.298 91.72C210.117 93.5973 205.509 94.536 200.474 94.536ZM282.561 94.536C279.404 94.536 276.545 94.152 273.985 93.384C271.51 92.616 269.292 91.5493 267.329 90.184C265.452 88.7333 263.83 87.112 262.465 85.32L260.289 93H243.265V0.839996H262.465V36.936C264.513 34.0347 267.158 31.6453 270.401 29.768C273.644 27.8907 277.654 26.952 282.433 26.952C288.321 26.952 293.569 28.4453 298.177 31.432C302.87 34.3333 306.582 38.344 309.313 43.464C312.044 48.4987 313.409 54.3013 313.409 60.872C313.409 67.272 312.044 73.032 309.313 78.152C306.582 83.272 302.913 87.2827 298.305 90.184C293.697 93.0853 288.449 94.536 282.561 94.536ZM277.825 77.768C280.897 77.768 283.628 77.0427 286.017 75.592C288.492 74.1413 290.412 72.1787 291.777 69.704C293.142 67.144 293.825 64.2 293.825 60.872C293.825 57.544 293.142 54.6 291.777 52.04C290.412 49.3947 288.492 47.3467 286.017 45.896C283.628 44.4453 280.897 43.72 277.825 43.72C274.668 43.72 271.852 44.488 269.377 46.024C266.988 47.4747 265.11 49.48 263.745 52.04C262.38 54.5147 261.697 57.4587 261.697 60.872C261.697 64.1147 262.38 67.016 263.745 69.576C265.11 72.136 266.988 74.1413 269.377 75.592C271.852 77.0427 274.668 77.768 277.825 77.768ZM324.556 93V28.488H343.756V93H324.556ZM334.156 21.064C330.743 21.064 327.969 20.0827 325.836 18.12C323.703 16.1573 322.636 13.6827 322.636 10.696C322.636 7.624 323.703 5.10666 325.836 3.144C327.969 1.18133 330.743 0.199997 334.156 0.199997C337.655 0.199997 340.471 1.18133 342.604 3.144C344.823 5.10666 345.932 7.624 345.932 10.696C345.932 13.6827 344.823 16.1573 342.604 18.12C340.471 20.0827 337.655 21.064 334.156 21.064ZM356.835 93V0.839996H376.035V93H356.835ZM419.078 93C414.385 93 410.246 92.2747 406.662 90.824C403.078 89.288 400.305 86.8133 398.342 83.4C396.379 79.9867 395.398 75.336 395.398 69.448V44.488H384.39V28.488H395.398L397.446 10.312H414.598V28.488H431.11V44.488H414.598V69.704C414.598 72.264 415.153 74.0987 416.262 75.208C417.457 76.232 419.462 76.744 422.278 76.744H431.11V93H419.078Z" fill="white"/>
</svg>
