<svg width="65" height="64" viewBox="0 0 65 64" fill="none" xmlns="http://www.w3.org/2000/svg">
<path d="M32.5008 1.80005C15.8008 1.80005 2.30078 15.3 2.30078 32C2.30078 48.7001 15.8008 62.3 32.5008 62.3C49.2008 62.3 62.8008 48.7001 62.8008 32C62.8008 15.3 49.2008 1.80005 32.5008 1.80005ZM32.5008 57.8C18.3008 57.8 6.80078 46.2001 6.80078 32C6.80078 17.8 18.3008 6.30005 32.5008 6.30005C46.7008 6.30005 58.3008 17.9 58.3008 32.1C58.3008 46.2001 46.7008 57.8 32.5008 57.8Z" fill="#D34848"/>
<path d="M41.7004 22.6999C40.8004 21.7999 39.4004 21.7999 38.5004 22.6999L32.5004 28.7999L26.4004 22.6999C25.5004 21.7999 24.1004 21.7999 23.2004 22.6999C22.3004 23.5999 22.3004 24.9999 23.2004 25.8999L29.3004 31.9999L23.2004 38.0999C22.3004 38.9999 22.3004 40.3999 23.2004 41.2999C23.6004 41.6999 24.2004 41.9999 24.8004 41.9999C25.4004 41.9999 26.0004 41.7999 26.4004 41.2999L32.5004 35.1999L38.6004 41.2999C39.0004 41.6999 39.6004 41.9999 40.2004 41.9999C40.8004 41.9999 41.4004 41.7999 41.8004 41.2999C42.7004 40.3999 42.7004 38.9999 41.8004 38.0999L35.7004 31.9999L41.8004 25.8999C42.6004 24.9999 42.6004 23.5999 41.7004 22.6999Z" fill="#D34848"/>
</svg>
