<svg width="24" height="25" viewBox="0 0 24 25" fill="none" xmlns="http://www.w3.org/2000/svg">
<path d="M14.06 9.52L14.98 10.44L5.92 19.5H5V18.58L14.06 9.52ZM17.66 3.5C17.41 3.5 17.15 3.6 16.96 3.79L15.13 5.62L18.88 9.37L20.71 7.54C20.8027 7.44749 20.8762 7.3376 20.9264 7.21662C20.9766 7.09565 21.0024 6.96597 21.0024 6.835C21.0024 6.70403 20.9766 6.57435 20.9264 6.45338C20.8762 6.3324 20.8027 6.22251 20.71 6.13L18.37 3.79C18.17 3.59 17.92 3.5 17.66 3.5ZM14.06 6.69L3 17.75V21.5H6.75L17.81 10.44L14.06 6.69Z" fill="white"/>
</svg>
