<svg width="52" height="53" viewBox="0 0 52 53" fill="none" xmlns="http://www.w3.org/2000/svg">
<g filter="url(#filter0_d_887_290)">
<rect x="10" y="10.5" width="32" height="32" rx="16" fill="white" shape-rendering="crispEdges"/>
<g clip-path="url(#clip0_887_290)">
<path d="M24.006 31C23.0245 31 22.1858 30.659 21.4898 29.977C20.7938 29.295 20.4463 28.4677 20.4473 27.4952C20.4483 26.5227 20.7958 25.6978 21.4898 25.0203C22.1863 24.3433 23.0253 24.0048 24.0068 24.0048H29.814L27.5895 21.781L28.1205 21.25L31.2495 24.3798L28.1198 27.5095L27.5888 26.9792L29.8133 24.7548H24.006C23.228 24.7548 22.5655 25.0192 22.0185 25.5483C21.4705 26.0773 21.1965 26.7262 21.1965 27.4952C21.1965 28.2642 21.4703 28.9157 22.0178 29.4497C22.5658 29.9832 23.2285 30.25 24.006 30.25H29.4465V31H24.006Z" fill="#939393"/>
</g>
</g>
<defs>
<filter id="filter0_d_887_290" x="0" y="0.5" width="52" height="52" filterUnits="userSpaceOnUse" color-interpolation-filters="sRGB">
<feFlood flood-opacity="0" result="BackgroundImageFix"/>
<feColorMatrix in="SourceAlpha" type="matrix" values="0 0 0 0 0 0 0 0 0 0 0 0 0 0 0 0 0 0 127 0" result="hardAlpha"/>
<feOffset/>
<feGaussianBlur stdDeviation="5"/>
<feComposite in2="hardAlpha" operator="out"/>
<feColorMatrix type="matrix" values="0 0 0 0 0 0 0 0 0 0 0 0 0 0 0 0 0 0 0.1 0"/>
<feBlend mode="normal" in2="BackgroundImageFix" result="effect1_dropShadow_887_290"/>
<feBlend mode="normal" in="SourceGraphic" in2="effect1_dropShadow_887_290" result="shape"/>
</filter>
<clipPath id="clip0_887_290">
<rect width="18" height="18" fill="white" transform="translate(17 17.5)"/>
</clipPath>
</defs>
</svg>
