<svg width="22" height="22" viewBox="0 0 22 22" fill="none" xmlns="http://www.w3.org/2000/svg">
<path d="M10.9987 4.9999V5.03313M5.03167 11.0002H4.99844M15.2414 6.75745L15.2179 6.78095M6.77961 15.2192L6.75612 15.2427M6.77961 6.78057L6.75612 6.75707M10.9984 20.5999C5.6965 20.5999 1.39844 16.3018 1.39844 10.9999C1.39844 5.69797 5.6965 1.3999 10.9984 1.3999C16.3004 1.3999 20.5984 5.69797 20.5984 10.9999C20.5984 12.614 19.1071 13.6879 17.493 13.6879H16.8664C16.5429 13.6879 16.2238 13.7632 15.9344 13.9079C14.905 14.4226 14.4877 15.6744 15.0024 16.7039C15.1471 16.9932 15.2224 17.3123 15.2224 17.6359V17.825C15.2224 18.9256 14.6048 19.9678 13.5434 20.2589C12.7329 20.4812 11.8795 20.5999 10.9984 20.5999Z" stroke="white" stroke-width="2" stroke-linecap="round" stroke-linejoin="round"/>
</svg>
