<svg width="65" height="64" viewBox="0 0 65 64" fill="none" xmlns="http://www.w3.org/2000/svg">
<path fill-rule="evenodd" clip-rule="evenodd" d="M33.25 62.5C37.2225 62.5 41.1561 61.7176 44.8262 60.1974C48.4963 58.6772 51.831 56.449 54.64 53.64C57.449 50.831 59.6772 47.4963 61.1974 43.8262C62.7176 40.1561 63.5 36.2225 63.5 32.25C63.5 28.2775 62.7176 24.3439 61.1974 20.6738C59.6772 17.0037 57.449 13.669 54.64 10.86C51.831 8.05105 48.4963 5.82285 44.8262 4.30264C41.1561 2.78244 37.2225 2 33.25 2C25.2272 2 17.533 5.18704 11.86 10.86C6.18704 16.533 3 24.2272 3 32.25C3 40.2728 6.18704 47.967 11.86 53.64C17.533 59.313 25.2272 62.5 33.25 62.5ZM32.4702 44.4844L49.2758 24.3178L44.1131 20.0156L29.6603 37.3555L22.1819 29.8737L17.4293 34.6263L27.5126 44.7096L30.1141 47.3111L32.4702 44.4844Z" fill="#008000"/>
</svg>
