<svg width="25" height="24" viewBox="0 0 25 24" fill="none" xmlns="http://www.w3.org/2000/svg">
<g clip-path="url(#clip0_2088_2098)">
<path d="M2.5 2H22.5V12H20.5V4H4.5V13.586L9.5 8.586L14.914 14L13.5 15.414L9.5 11.414L4.5 16.414V20H12.5V22H2.5V2ZM16.047 7C15.7818 7 15.5274 7.10536 15.3399 7.29289C15.1524 7.48043 15.047 7.73478 15.047 8C15.047 8.26522 15.1524 8.51957 15.3399 8.70711C15.5274 8.89464 15.7818 9 16.047 9C16.3122 9 16.5666 8.89464 16.7541 8.70711C16.9416 8.51957 17.047 8.26522 17.047 8C17.047 7.73478 16.9416 7.48043 16.7541 7.29289C16.5666 7.10536 16.3122 7 16.047 7ZM13.047 8C13.047 7.20435 13.3631 6.44129 13.9257 5.87868C14.4883 5.31607 15.2514 5 16.047 5C16.8426 5 17.6057 5.31607 18.1683 5.87868C18.7309 6.44129 19.047 7.20435 19.047 8C19.047 8.79565 18.7309 9.55871 18.1683 10.1213C17.6057 10.6839 16.8426 11 16.047 11C15.2514 11 14.4883 10.6839 13.9257 10.1213C13.3631 9.55871 13.047 8.79565 13.047 8ZM20.5 14V18H24.5V20H20.5V24H18.5V20H14.5V18H18.5V14H20.5Z" fill="white"/>
</g>
<defs>
<clipPath id="clip0_2088_2098">
<rect width="24" height="24" fill="white" transform="translate(0.5)"/>
</clipPath>
</defs>
</svg>
