<svg width="25" height="24" viewBox="0 0 25 24" fill="none" xmlns="http://www.w3.org/2000/svg">
<path d="M19.9846 20.154L13.7226 13.892C13.2226 14.318 12.6476 14.6477 11.9976 14.881C11.3476 15.1144 10.6943 15.231 10.0376 15.231C8.43628 15.231 7.08095 14.6767 5.97162 13.568C4.86228 12.4594 4.30762 11.1044 4.30762 9.50305C4.30762 7.90171 4.86162 6.54605 5.96962 5.43605C7.07762 4.32605 8.43228 3.77038 10.0336 3.76905C11.635 3.76771 12.991 4.32238 14.1016 5.43305C15.2123 6.54371 15.7676 7.89938 15.7676 9.50005C15.7676 10.1947 15.6446 10.867 15.3986 11.517C15.1526 12.167 14.8293 12.723 14.4286 13.185L20.6906 19.446L19.9846 20.154ZM10.0386 14.23C11.3653 14.23 12.4853 13.7734 13.3986 12.86C14.3119 11.9467 14.7686 10.8264 14.7686 9.49904C14.7686 8.17171 14.3119 7.05171 13.3986 6.13905C12.4853 5.22638 11.3653 4.76971 10.0386 4.76905C8.71195 4.76838 7.59162 5.22505 6.67762 6.13905C5.76362 7.05305 5.30695 8.17305 5.30762 9.49904C5.30828 10.825 5.76495 11.945 6.67762 12.859C7.59028 13.773 8.71028 14.2297 10.0376 14.229" fill="white"/>
</svg>
